<svg width="1689" height="178" viewBox="0 0 1689 178" fill="none" xmlns="http://www.w3.org/2000/svg">
<path d="M0.535512 175V0.45454H62.7514C76.2742 0.45454 87.4957 2.78409 96.4162 7.44318C105.393 12.1023 112.098 18.5511 116.53 26.7898C120.962 34.9716 123.178 44.4318 123.178 55.1705C123.178 65.8523 120.933 75.2557 116.445 83.3807C112.013 91.4489 105.308 97.7273 96.331 102.216C87.4105 106.705 76.1889 108.949 62.6662 108.949H15.5355V86.2784H60.2798C68.8026 86.2784 75.7344 85.0568 81.0753 82.6136C86.473 80.1705 90.4219 76.6193 92.9219 71.9602C95.4219 67.3011 96.6719 61.7045 96.6719 55.1705C96.6719 48.5795 95.3935 42.8693 92.8367 38.0398C90.3367 33.2102 86.3878 29.517 80.9901 26.9602C75.6491 24.3466 68.6321 23.0398 59.9389 23.0398H26.8707V175H0.535512ZM86.7003 96.25L129.825 175H99.8253L57.5526 96.25H86.7003ZM191.274 177.898C182.979 177.898 175.479 176.364 168.774 173.295C162.07 170.17 156.757 165.653 152.837 159.744C148.973 153.835 147.041 146.591 147.041 138.011C147.041 130.625 148.462 124.545 151.303 119.773C154.143 115 157.979 111.222 162.808 108.438C167.638 105.653 173.036 103.551 179.001 102.131C184.967 100.71 191.047 99.6307 197.24 98.892C205.081 97.983 211.445 97.2443 216.331 96.6761C221.217 96.0511 224.768 95.0568 226.984 93.6932C229.2 92.3295 230.308 90.1136 230.308 87.0455V86.4489C230.308 79.0057 228.206 73.2386 224.001 69.1477C219.854 65.0568 213.661 63.0114 205.422 63.0114C196.842 63.0114 190.081 64.9148 185.138 68.7216C180.251 72.4716 176.871 76.6477 174.996 81.25L151.047 75.7955C153.888 67.8409 158.036 61.4205 163.49 56.5341C169.001 51.5909 175.337 48.0114 182.496 45.7954C189.655 43.5227 197.183 42.3864 205.081 42.3864C210.308 42.3864 215.848 43.0114 221.7 44.2614C227.609 45.4545 233.121 47.6705 238.234 50.9091C243.405 54.1477 247.638 58.7784 250.933 64.8011C254.229 70.767 255.876 78.5227 255.876 88.0682V175H230.99V157.102H229.967C228.32 160.398 225.848 163.636 222.553 166.818C219.257 170 215.024 172.642 209.854 174.744C204.683 176.847 198.49 177.898 191.274 177.898ZM196.814 157.443C203.859 157.443 209.882 156.051 214.882 153.267C219.939 150.483 223.774 146.847 226.388 142.358C229.058 137.812 230.393 132.955 230.393 127.784V110.909C229.484 111.818 227.723 112.67 225.109 113.466C222.553 114.205 219.626 114.858 216.331 115.426C213.036 115.937 209.825 116.42 206.7 116.875C203.575 117.273 200.962 117.614 198.859 117.898C193.916 118.523 189.399 119.574 185.308 121.051C181.274 122.528 178.036 124.659 175.592 127.443C173.206 130.17 172.013 133.807 172.013 138.352C172.013 144.659 174.342 149.432 179.001 152.67C183.661 155.852 189.598 157.443 196.814 157.443ZM313.256 130.597L313.085 99.4886H317.517L369.676 44.0909H400.188L340.699 107.159H336.693L313.256 130.597ZM289.818 175V0.45454H315.301V175H289.818ZM372.489 175L325.614 112.784L343.17 94.9716L403.767 175H372.489ZM448.895 97.2727V175H423.412V0.45454H448.554V65.3977H450.173C453.241 58.3523 457.929 52.7557 464.236 48.6079C470.543 44.4602 478.781 42.3864 488.952 42.3864C497.929 42.3864 505.77 44.233 512.474 47.9261C519.236 51.6193 524.463 57.1307 528.156 64.4602C531.906 71.733 533.781 80.8239 533.781 91.733V175H508.298V94.8011C508.298 85.1989 505.827 77.7557 500.884 72.4716C495.94 67.1307 489.065 64.4602 480.259 64.4602C474.236 64.4602 468.838 65.7386 464.065 68.2955C459.349 70.8523 455.628 74.6023 452.901 79.5455C450.23 84.4318 448.895 90.3409 448.895 97.2727ZM567.787 175V44.0909H592.247V65.3977H593.866C596.594 58.1818 601.054 52.5568 607.247 48.5227C613.44 44.4318 620.855 42.3864 629.491 42.3864C638.241 42.3864 645.571 44.4318 651.48 48.5227C657.446 52.6136 661.849 58.2386 664.69 65.3977H666.054C669.179 58.4091 674.151 52.8409 680.969 48.6932C687.787 44.4886 695.912 42.3864 705.344 42.3864C717.219 42.3864 726.906 46.108 734.406 53.5511C741.963 60.9943 745.741 72.2159 745.741 87.2159V175H720.259V89.6023C720.259 80.7386 717.844 74.3182 713.014 70.3409C708.185 66.3636 702.418 64.375 695.713 64.375C687.418 64.375 680.969 66.9318 676.366 72.0455C671.764 77.1023 669.463 83.608 669.463 91.5625V175H644.065V87.983C644.065 80.8807 641.849 75.1705 637.418 70.8523C632.986 66.5341 627.219 64.375 620.116 64.375C615.287 64.375 610.827 65.6534 606.736 68.2102C602.702 70.7102 599.435 74.2045 596.935 78.6932C594.491 83.1818 593.27 88.3807 593.27 94.2898V175H567.787ZM817.993 177.898C809.697 177.898 802.197 176.364 795.493 173.295C788.788 170.17 783.476 165.653 779.555 159.744C775.692 153.835 773.76 146.591 773.76 138.011C773.76 130.625 775.18 124.545 778.021 119.773C780.862 115 784.697 111.222 789.527 108.438C794.357 105.653 799.754 103.551 805.72 102.131C811.686 100.71 817.766 99.6307 823.959 98.892C831.8 97.983 838.163 97.2443 843.05 96.6761C847.936 96.0511 851.487 95.0568 853.703 93.6932C855.919 92.3295 857.027 90.1136 857.027 87.0455V86.4489C857.027 79.0057 854.925 73.2386 850.72 69.1477C846.572 65.0568 840.379 63.0114 832.141 63.0114C823.561 63.0114 816.8 64.9148 811.857 68.7216C806.97 72.4716 803.589 76.6477 801.714 81.25L777.766 75.7955C780.607 67.8409 784.754 61.4205 790.209 56.5341C795.72 51.5909 802.055 48.0114 809.214 45.7954C816.374 43.5227 823.902 42.3864 831.8 42.3864C837.027 42.3864 842.567 43.0114 848.419 44.2614C854.328 45.4545 859.839 47.6705 864.953 50.9091C870.124 54.1477 874.357 58.7784 877.652 64.8011C880.947 70.767 882.595 78.5227 882.595 88.0682V175H857.709V157.102H856.686C855.038 160.398 852.567 163.636 849.271 166.818C845.976 170 841.743 172.642 836.572 174.744C831.402 176.847 825.209 177.898 817.993 177.898ZM823.533 157.443C830.578 157.443 836.601 156.051 841.601 153.267C846.658 150.483 850.493 146.847 853.107 142.358C855.777 137.812 857.112 132.955 857.112 127.784V110.909C856.203 111.818 854.442 112.67 851.828 113.466C849.271 114.205 846.345 114.858 843.05 115.426C839.754 115.937 836.544 116.42 833.419 116.875C830.294 117.273 827.68 117.614 825.578 117.898C820.635 118.523 816.118 119.574 812.027 121.051C807.993 122.528 804.754 124.659 802.311 127.443C799.925 130.17 798.732 133.807 798.732 138.352C798.732 144.659 801.061 149.432 805.72 152.67C810.379 155.852 816.317 157.443 823.533 157.443ZM977.645 44.0909V64.5455H906.139V44.0909H977.645ZM925.315 12.7273H950.798V136.562C950.798 141.506 951.537 145.227 953.014 147.727C954.491 150.17 956.395 151.847 958.724 152.756C961.111 153.608 963.696 154.034 966.48 154.034C968.526 154.034 970.315 153.892 971.849 153.608C973.384 153.324 974.577 153.097 975.429 152.926L980.031 173.977C978.554 174.545 976.452 175.114 973.724 175.682C970.997 176.307 967.588 176.648 963.497 176.705C956.793 176.818 950.543 175.625 944.747 173.125C938.952 170.625 934.264 166.761 930.685 161.534C927.105 156.307 925.315 149.744 925.315 141.847V12.7273ZM1088.76 120.71V44.0909H1114.33V175H1089.27V152.33H1087.91C1084.9 159.318 1080.07 165.142 1073.42 169.801C1066.83 174.403 1058.62 176.705 1048.79 176.705C1040.38 176.705 1032.94 174.858 1026.46 171.165C1020.04 167.415 1014.98 161.875 1011.29 154.545C1007.65 147.216 1005.83 138.153 1005.83 127.358V44.0909H1031.32V124.29C1031.32 133.21 1033.79 140.312 1038.73 145.597C1043.67 150.881 1050.1 153.523 1057.99 153.523C1062.77 153.523 1067.51 152.33 1072.23 149.943C1077 147.557 1080.95 143.949 1084.07 139.119C1087.25 134.29 1088.82 128.153 1088.76 120.71ZM1174.05 0.45454V175H1148.57V0.45454H1174.05ZM1233.82 0.45454V175H1208.33V0.45454H1233.82ZM1323.24 177.642C1310.97 177.642 1300.26 174.83 1291.11 169.205C1281.96 163.58 1274.86 155.71 1269.8 145.597C1264.75 135.483 1262.22 123.665 1262.22 110.142C1262.22 96.5625 1264.75 84.6875 1269.8 74.517C1274.86 64.3466 1281.96 56.4489 1291.11 50.8239C1300.26 45.1989 1310.97 42.3864 1323.24 42.3864C1335.51 42.3864 1346.22 45.1989 1355.37 50.8239C1364.52 56.4489 1371.62 64.3466 1376.68 74.517C1381.74 84.6875 1384.26 96.5625 1384.26 110.142C1384.26 123.665 1381.74 135.483 1376.68 145.597C1371.62 155.71 1364.52 163.58 1355.37 169.205C1346.22 174.83 1335.51 177.642 1323.24 177.642ZM1323.33 156.25C1331.28 156.25 1337.87 154.148 1343.1 149.943C1348.33 145.739 1352.19 140.142 1354.69 133.153C1357.25 126.165 1358.53 118.466 1358.53 110.057C1358.53 101.705 1357.25 94.0341 1354.69 87.0455C1352.19 80 1348.33 74.3466 1343.1 70.0852C1337.87 65.8239 1331.28 63.6932 1323.33 63.6932C1315.32 63.6932 1308.67 65.8239 1303.38 70.0852C1298.16 74.3466 1294.26 80 1291.71 87.0455C1289.21 94.0341 1287.96 101.705 1287.96 110.057C1287.96 118.466 1289.21 126.165 1291.71 133.153C1294.26 140.142 1298.16 145.739 1303.38 149.943C1308.67 154.148 1315.32 156.25 1323.33 156.25ZM1438.19 97.2727V175H1412.71V0.45454H1437.85V65.3977H1439.47C1442.54 58.3523 1447.23 52.7557 1453.53 48.6079C1459.84 44.4602 1468.08 42.3864 1478.25 42.3864C1487.23 42.3864 1495.07 44.233 1501.77 47.9261C1508.53 51.6193 1513.76 57.1307 1517.45 64.4602C1521.2 71.733 1523.08 80.8239 1523.08 91.733V175H1497.6V94.8011C1497.6 85.1989 1495.12 77.7557 1490.18 72.4716C1485.24 67.1307 1478.36 64.4602 1469.56 64.4602C1463.53 64.4602 1458.13 65.7386 1453.36 68.2955C1448.65 70.8523 1444.92 74.6023 1442.2 79.5455C1439.53 84.4318 1438.19 90.3409 1438.19 97.2727Z" fill="white"/>
<path d="M1559.13 175V0.45454H1621.35C1634.87 0.45454 1646.09 2.78409 1655.01 7.44318C1663.99 12.1023 1670.69 18.5511 1675.12 26.7898C1679.56 34.9716 1681.77 44.4318 1681.77 55.1705C1681.77 65.8523 1679.53 75.2557 1675.04 83.3807C1670.61 91.4489 1663.9 97.7273 1654.92 102.216C1646 106.705 1634.78 108.949 1621.26 108.949H1574.13V86.2784H1618.87C1627.4 86.2784 1634.33 85.0568 1639.67 82.6136C1645.07 80.1705 1649.02 76.6193 1651.52 71.9602C1654.02 67.3011 1655.27 61.7045 1655.27 55.1705C1655.27 48.5795 1653.99 42.8693 1651.43 38.0398C1648.93 33.2102 1644.98 29.517 1639.58 26.9602C1634.24 24.3466 1627.23 23.0398 1618.53 23.0398H1585.46V175H1559.13ZM1645.29 96.25L1688.42 175H1658.42L1616.15 96.25H1645.29Z" fill="#42FF00"/>
</svg>
